<svg id="Layer_1" data-name="Layer 1" xmlns="http://www.w3.org/2000/svg" viewBox="0 0 736.98 271.68"><defs><style>.cls-1{font-size:88.33px;font-family:Gotham-Bold, Gotham;font-weight:700;}.cls-1,.cls-8{fill:#78008e;}.cls-2{font-size:65px;font-family:Gotham-Medium, Gotham;font-weight:500;}.cls-2,.cls-7{fill:#ff8202;}.cls-3{letter-spacing:-0.01em;}.cls-4{letter-spacing:-0.05em;}.cls-5{letter-spacing:-0.09em;}.cls-6{letter-spacing:0em;}</style></defs><title>Bishal Foundation logo</title><text class="cls-1" transform="translate(276.39 167.17)">BISHAL</text><text class="cls-2" transform="translate(276.39 237.86)"><tspan class="cls-3">F</tspan><tspan x="42.25" y="0">OUN</tspan><tspan class="cls-4" x="198.05" y="0">D</tspan><tspan class="cls-5" x="245.76" y="0">A</tspan><tspan class="cls-6" x="291.26" y="0">TION</tspan></text><path class="cls-7" d="M185.67,384.56a128.07,128.07,0,0,1-33.31-251.73A136,136,0,1,0,267.85,354.71,127.54,127.54,0,0,1,185.67,384.56Z" transform="translate(-26.61 -132.83)"/><path class="cls-8" d="M82.39,240.82s25.07,5.79,72.32-28c0,0,23.15,23.89,25.08,28.34C179.79,241.2,138.32,266.86,82.39,240.82Z" transform="translate(-26.61 -132.83)"/><path class="cls-8" d="M77.57,256.5s50.14,24.05,111.86-4c0,0,18.32,26.9,20.25,39.44,0,0-34.68,36.64-112.79,22.18C96.89,314.11,82.39,301.12,77.57,256.5Z" transform="translate(-26.61 -132.83)"/><path class="cls-8" d="M108.43,330.46s62.68,10.65,106.07-24.07c0,0,7.71,30.86,6.75,49.18C221.25,355.57,173,381.57,108.43,330.46Z" transform="translate(-26.61 -132.83)"/><path class="cls-8" d="M162.64,202.25s21-19.29,29.68-57.86c0,0,41.08,2.27,59,21,0,0-19,50.06-57.1,67.31Z" transform="translate(-26.61 -132.83)"/><path class="cls-8" d="M202.93,245.61s17.52,27.62,18.4,39.38c0,0,44-30.78,53.81-96.46,0,0-4.07-5.57-10.5-13.28C264.64,175.25,252.43,214.75,202.93,245.61Z" transform="translate(-26.61 -132.83)"/><path class="cls-8" d="M226.71,300s46.29-31.76,56.15-95.24c0,0,50.14,90.81-48,146.1C234.86,350.86,232.49,317.57,226.71,300Z" transform="translate(-26.61 -132.83)"/><circle class="cls-7" cx="103.04" cy="54.26" r="20.6"/></svg>